<svg xmlns="http://www.w3.org/2000/svg" width="375" height="812" viewBox="0 0 375 812">
  <defs>

    <linearGradient id="journalHero" x1="0%" y1="0%" x2="0%" y2="100%">
      <stop offset="0%" stop-color="#EEF5FF" />
      <stop offset="100%" stop-color="#FFFFFF" />
    </linearGradient>
    </defs>
  <rect width="375" height="812" fill="#F7F9FC" />

  <!-- 顶栏 -->
  <rect x="0" y="0" width="375" height="72" fill="#FFFFFF" />
  <text x="32" y="44" font-size="18" font-weight="700" fill="#2C3640">日记</text>
  <rect x="240" y="22" width="96" height="32" rx="16" fill="#FFFFFF" stroke="#3A7BD5" />
  <text x="288" y="43" font-size="12" font-weight="600" fill="#3A7BD5" text-anchor="middle">快速记一笔</text>

  <!-- Segmented 控件 -->
  <rect x="24" y="84" width="327" height="48" rx="24" fill="rgba(58,123,213,0.08)" />
  <rect x="28" y="88" width="155" height="40" rx="20" fill="#3A7BD5" />
  <text x="105" y="113" font-size="14" font-weight="600" fill="#FFFFFF" text-anchor="middle">日记</text>
  <text x="265" y="113" font-size="14" font-weight="600" fill="#7B8893" text-anchor="middle">清单</text>

  <!-- 情绪趋势卡 -->
  <rect x="24" y="140" width="327" height="156" rx="20" fill="url(#journalHero)" />
  <text x="44" y="168" font-size="12" font-weight="600" fill="#3A7BD5">周趋势</text>
  <text x="320" y="168" font-size="12" fill="#7B8893" text-anchor="end">月</text>
  <polyline points="44,204 92,188 140,212 188,182 236,196 284,180" fill="none" stroke="#3A7BD5" stroke-width="2" stroke-linecap="round" />
  <circle cx="92" cy="188" r="4" fill="#8C86FF" />
  <circle cx="140" cy="212" r="4" fill="#5AA6A6" />
  <circle cx="188" cy="182" r="4" fill="#F5A97F" />
  <text x="44" y="236" font-size="11" fill="#5A6672">标签：#学业 #睡眠 #关系</text>
  <rect x="44" y="246" width="68" height="22" rx="11" fill="#EEF5FF" />
  <text x="78" y="261" font-size="10" fill="#3A7BD5" text-anchor="middle">压力 3/10</text>
  <rect x="120" y="246" width="68" height="22" rx="11" fill="#EAFBF5" />
  <text x="154" y="261" font-size="10" fill="#1FA476" text-anchor="middle">振幅 ↓12%</text>

  <!-- 日记卡列表 -->
  <rect x="24" y="310" width="327" height="120" rx="20" fill="#FFFFFF" stroke="#E9EDF3" />
  <circle cx="48" cy="334" r="12" fill="#D9E8FF" />
  <text x="64" y="338" font-size="12" font-weight="600" fill="#2C3640">星期三 · 晚间</text>
  <rect x="64" y="344" width="56" height="18" rx="9" fill="#EEF5FF" />
  <text x="92" y="357" font-size="10" fill="#3A7BD5" text-anchor="middle">情绪 平静</text>
  <text x="48" y="376" font-size="12" fill="#5A6672">今天和组员开会比预期顺利，想把这个节奏延续下去...</text>
  <rect x="48" y="410" width="72" height="20" rx="10" fill="#F4F3FF" />
  <text x="84" y="424" font-size="10" fill="#8C86FF" text-anchor="middle">语音 02:10</text>
  <rect x="128" y="410" width="92" height="20" rx="10" fill="#EEF5FF" />
  <text x="174" y="424" font-size="10" fill="#3A7BD5" text-anchor="middle">生成任务</text>

  <rect x="24" y="440" width="327" height="120" rx="20" fill="#FFFFFF" stroke="#E9EDF3" />
  <circle cx="48" cy="464" r="12" fill="#F5D4D2" />
  <text x="64" y="468" font-size="12" font-weight="600" fill="#2C3640">星期二 · 午后</text>
  <rect x="64" y="474" width="64" height="18" rx="9" fill="#FFEDEA" />
  <text x="96" y="487" font-size="10" fill="#DC2626" text-anchor="middle">情绪 紧张</text>
  <text x="48" y="506" font-size="12" fill="#5A6672">在自习室有点分心，下午要补回 30 分钟复习...</text>
  <rect x="48" y="540" width="102" height="20" rx="10" fill="#EAFBF5" />
  <text x="99" y="554" font-size="10" fill="#1FA476" text-anchor="middle">已生成任务卡</text>

  <!-- 底部导航 -->
  <rect x="0" y="744" width="375" height="68" fill="#FFFFFF" />
  <g fill="#5A6672" font-size="12" font-weight="600" text-anchor="middle">
    <text x="46" y="784">今天</text>
    <text x="140" y="784" fill="#3A7BD5">日记</text>
    <text x="234" y="784">树洞</text>
    <text x="328" y="784">我的</text>
  </g>
  <rect x="124" y="760" width="32" height="4" rx="2" fill="#3A7BD5" />
</svg>
