<svg xmlns="http://www.w3.org/2000/svg" width="375" height="812" viewBox="0 0 375 812">
  <defs>

    <linearGradient id="profileHero" x1="0%" y1="0%" x2="0%" y2="100%">
      <stop offset="0%" stop-color="#EEF5FF" />
      <stop offset="100%" stop-color="#FFFFFF" />
    </linearGradient>
    </defs>
  <rect width="375" height="812" fill="#F7F9FC" />

  <!-- 顶栏 -->
  <rect x="0" y="0" width="375" height="72" fill="#FFFFFF" />
  <text x="32" y="44" font-size="18" font-weight="700" fill="#2C3640">我的</text>

  <!-- 欢迎卡 -->
  <rect x="24" y="88" width="327" height="132" rx="24" fill="url(#profileHero)" />
  <circle cx="68" cy="136" r="24" fill="#D9E8FF" />
  <text x="108" y="128" font-size="16" font-weight="700" fill="#2C3640">晚安，小林</text>
  <text x="108" y="148" font-size="12" fill="#5A6672">今天已连续守护 12 天</text>
  <rect x="108" y="158" width="96" height="22" rx="11" fill="#EAFBF5" />
  <text x="156" y="174" font-size="10" fill="#1FA476" text-anchor="middle">连续打卡 12 天</text>
  <rect x="236" y="116" width="96" height="32" rx="16" fill="#FFFFFF" stroke="#3A7BD5" />
  <text x="284" y="137" font-size="12" font-weight="600" fill="#3A7BD5" text-anchor="middle">查看周报</text>
  <rect x="236" y="156" width="96" height="32" rx="16" fill="#FFFFFF" stroke="#E9EDF3" />
  <text x="284" y="177" font-size="12" font-weight="600" fill="#5A6672" text-anchor="middle">隐私设置</text>

  <!-- 护心周报 -->
  <rect x="24" y="236" width="327" height="170" rx="24" fill="#FFFFFF" />
  <text x="44" y="260" font-size="14" font-weight="700" fill="#2C3640">护心周报</text>
  <text x="280" y="260" font-size="12" fill="#3A7BD5" text-anchor="end">生成任务</text>
  <circle cx="92" cy="316" r="42" fill="#EEF5FF" />
  <path d="M92 274 A42 42 0 1 1 62 350" fill="none" stroke="#3A7BD5" stroke-width="8" />
  <text x="92" y="320" font-size="14" font-weight="700" fill="#3A7BD5" text-anchor="middle">67%</text>
  <text x="44" y="380" font-size="11" fill="#5A6672">情绪稳定度 +12%</text>
  <text x="150" y="296" font-size="12" fill="#5A6672">建议接受率 82%</text>
  <text x="150" y="316" font-size="12" fill="#5A6672">任务完成率 74%</text>
  <text x="150" y="336" font-size="12" fill="#5A6672">复盘完成率 68%</text>
  <rect x="150" y="348" width="160" height="28" rx="14" fill="#3A7BD5" />
  <text x="230" y="366" font-size="12" font-weight="600" fill="#FFFFFF" text-anchor="middle">查看完整周报</text>

  <!-- 徽章滑动区 -->
  <text x="24" y="430" font-size="14" font-weight="700" fill="#2C3640">护心徽章</text>
  <g>
    <rect x="24" y="444" width="96" height="116" rx="20" fill="#EEF5FF" />
    <text x="72" y="506" font-size="12" font-weight="600" fill="#3A7BD5" text-anchor="middle">晨间打卡</text>
    <rect x="130" y="444" width="96" height="116" rx="20" fill="#F4F3FF" />
    <text x="178" y="506" font-size="12" font-weight="600" fill="#8C86FF" text-anchor="middle">社交勇气</text>
    <rect x="236" y="444" width="96" height="116" rx="20" fill="#E9EDF3" />
    <text x="284" y="506" font-size="12" font-weight="600" fill="#7B8893" text-anchor="middle">待解锁</text>
  </g>

  <!-- 隐私与授权 -->
  <rect x="24" y="574" width="327" height="104" rx="20" fill="#FFFFFF" />
  <text x="44" y="602" font-size="14" font-weight="700" fill="#2C3640">隐私与授权</text>
  <text x="44" y="624" font-size="12" fill="#5A6672">辅导员（有效至 12/30） · 查看情绪评分</text>
  <text x="44" y="644" font-size="12" fill="#5A6672">树洞守护者（永久） · 仅限风险信号</text>
  <rect x="248" y="628" width="92" height="28" rx="14" fill="#EAFBF5" />
  <text x="294" y="647" font-size="12" font-weight="600" fill="#1FA476" text-anchor="middle">查看审计</text>

  <!-- 资源地图 -->
  <text x="24" y="706" font-size="14" font-weight="700" fill="#2C3640">资源地图</text>
  <rect x="24" y="720" width="150" height="72" rx="16" fill="#FFFFFF" />
  <text x="44" y="742" font-size="12" font-weight="600" fill="#2C3640">心理中心</text>
  <text x="44" y="760" font-size="11" fill="#5A6672">预约：工作日 9-17 点</text>
  <rect x="186" y="720" width="165" height="72" rx="16" fill="#FFFFFF" />
  <text x="206" y="742" font-size="12" font-weight="600" fill="#2C3640">24h 公益热线</text>
  <text x="206" y="760" font-size="11" fill="#5A6672">匿名拨号 400-xxxx-120</text>

  <!-- 底部导航 -->
  <rect x="0" y="744" width="375" height="68" fill="#FFFFFF" />
  <g fill="#5A6672" font-size="12" font-weight="600" text-anchor="middle">
    <text x="46" y="784">今天</text>
    <text x="140" y="784">日记</text>
    <text x="234" y="784">树洞</text>
    <text x="328" y="784" fill="#3A7BD5">我的</text>
  </g>
  <rect x="312" y="760" width="32" height="4" rx="2" fill="#3A7BD5" />

</svg>
