<svg xmlns="http://www.w3.org/2000/svg" width="375" height="812" viewBox="0 0 375 812">
  <defs>
  </defs><rect x="0" y="0" width="375" height="812" fill="#F7F9FC" /><rect x="0" y="0" width="375" height="44" fill="#FFFFFF" /><rect x="16" y="56" width="343" height="96" fill="#EEF5FF" rx="16" ry="16" stroke="#D9E8FF" stroke-width="1" /><text x="32" y="86" font-family="Inter, PingFang SC, Helvetica, Arial" font-size="16" font-weight="700" fill="#2C3640" text-anchor="start">今日状态</text><text x="32" y="112" font-family="Inter, PingFang SC, Helvetica, Arial" font-size="12" font-weight="500" fill="#5A6672" text-anchor="start">情绪：平静  ·  压力：2/10</text><g><rect x="253" y="70" width="66.0" height="28" fill="#EEF5FF" rx="999" ry="999" /><text x="286.0" y="90" font-family="Inter, PingFang SC, Helvetica, Arial" font-size="12" font-weight="600" fill="#3A7BD5" text-anchor="middle">R1 观察</text></g><text x="16" y="180" font-family="Inter, PingFang SC, Helvetica, Arial" font-size="16" font-weight="700" fill="#2C3640" text-anchor="start">工具箱（社区入口）</text><rect x="34.875" y="194" width="48" height="48" fill="#FFFFFF" rx="12" ry="12" stroke="#E9EDF3" stroke-width="1" /><rect x="42.875" y="202" width="32" height="32" fill="#3A7BD5" rx="16" ry="16" /><text x="58.875" y="224" font-family="Inter, PingFang SC, Helvetica, Arial" font-size="14" font-weight="700" fill="#FFFFFF" text-anchor="middle">日</text><text x="58.875" y="260" font-family="Inter, PingFang SC, Helvetica, Arial" font-size="12" font-weight="600" fill="#434E5A" text-anchor="middle">日记</text><rect x="120.625" y="194" width="48" height="48" fill="#FFFFFF" rx="12" ry="12" stroke="#E9EDF3" stroke-width="1" /><rect x="128.625" y="202" width="32" height="32" fill="#3A7BD5" rx="16" ry="16" /><text x="144.625" y="224" font-family="Inter, PingFang SC, Helvetica, Arial" font-size="14" font-weight="700" fill="#FFFFFF" text-anchor="middle">清</text><text x="144.625" y="260" font-family="Inter, PingFang SC, Helvetica, Arial" font-size="12" font-weight="600" fill="#434E5A" text-anchor="middle">清单</text><rect x="206.375" y="194" width="48" height="48" fill="#FFFFFF" rx="12" ry="12" stroke="#E9EDF3" stroke-width="1" /><rect x="214.375" y="202" width="32" height="32" fill="#3A7BD5" rx="16" ry="16" /><text x="230.375" y="224" font-family="Inter, PingFang SC, Helvetica, Arial" font-size="14" font-weight="700" fill="#FFFFFF" text-anchor="middle">呼</text><text x="230.375" y="260" font-family="Inter, PingFang SC, Helvetica, Arial" font-size="12" font-weight="600" fill="#434E5A" text-anchor="middle">呼吸</text><rect x="292.125" y="194" width="48" height="48" fill="#FFFFFF" rx="12" ry="12" stroke="#E9EDF3" stroke-width="1" /><rect x="300.125" y="202" width="32" height="32" fill="#3A7BD5" rx="16" ry="16" /><text x="316.125" y="224" font-family="Inter, PingFang SC, Helvetica, Arial" font-size="14" font-weight="700" fill="#FFFFFF" text-anchor="middle">正</text><text x="316.125" y="260" font-family="Inter, PingFang SC, Helvetica, Arial" font-size="12" font-weight="600" fill="#434E5A" text-anchor="middle">正念</text><rect x="34.875" y="282" width="48" height="48" fill="#FFFFFF" rx="12" ry="12" stroke="#E9EDF3" stroke-width="1" /><rect x="42.875" y="290" width="32" height="32" fill="#3A7BD5" rx="16" ry="16" /><text x="58.875" y="312" font-family="Inter, PingFang SC, Helvetica, Arial" font-size="14" font-weight="700" fill="#FFFFFF" text-anchor="middle">树</text><text x="58.875" y="348" font-family="Inter, PingFang SC, Helvetica, Arial" font-size="12" font-weight="600" fill="#434E5A" text-anchor="middle">树洞</text><rect x="120.625" y="282" width="48" height="48" fill="#FFFFFF" rx="12" ry="12" stroke="#E9EDF3" stroke-width="1" /><rect x="128.625" y="290" width="32" height="32" fill="#3A7BD5" rx="16" ry="16" /><text x="144.625" y="312" font-family="Inter, PingFang SC, Helvetica, Arial" font-size="14" font-weight="700" fill="#FFFFFF" text-anchor="middle">任</text><text x="144.625" y="348" font-family="Inter, PingFang SC, Helvetica, Arial" font-size="12" font-weight="600" fill="#434E5A" text-anchor="middle">任务</text><rect x="206.375" y="282" width="48" height="48" fill="#FFFFFF" rx="12" ry="12" stroke="#E9EDF3" stroke-width="1" /><rect x="214.375" y="290" width="32" height="32" fill="#3A7BD5" rx="16" ry="16" /><text x="230.375" y="312" font-family="Inter, PingFang SC, Helvetica, Arial" font-size="14" font-weight="700" fill="#FFFFFF" text-anchor="middle">打</text><text x="230.375" y="348" font-family="Inter, PingFang SC, Helvetica, Arial" font-size="12" font-weight="600" fill="#434E5A" text-anchor="middle">打卡</text><rect x="292.125" y="282" width="48" height="48" fill="#FFFFFF" rx="12" ry="12" stroke="#E9EDF3" stroke-width="1" /><rect x="300.125" y="290" width="32" height="32" fill="#DC2626" rx="16" ry="16" /><text x="316.125" y="312" font-family="Inter, PingFang SC, Helvetica, Arial" font-size="14" font-weight="700" fill="#FFFFFF" text-anchor="middle">S</text><text x="316.125" y="348" font-family="Inter, PingFang SC, Helvetica, Arial" font-size="12" font-weight="600" fill="#434E5A" text-anchor="middle">SOS</text><text x="16" y="380" font-family="Inter, PingFang SC, Helvetica, Arial" font-size="16" font-weight="700" fill="#2C3640" text-anchor="start">进行中的任务</text><text x="359" y="380" font-family="Inter, PingFang SC, Helvetica, Arial" font-size="12" font-weight="600" fill="#3A7BD5" text-anchor="end">查看全部</text><rect x="16" y="386" width="343" height="120" fill="#EAFBF5" rx="16" ry="16" stroke="#C5EBDD" stroke-width="1" /><text x="32" y="416" font-family="Inter, PingFang SC, Helvetica, Arial" font-size="16" font-weight="700" fill="#2C3640" text-anchor="start">整理书桌 10 分钟</text><text x="32" y="442" font-family="Inter, PingFang SC, Helvetica, Arial" font-size="12" font-weight="500" fill="#5A6672" text-anchor="start">小目标先开局，完成后记录感受。</text><g><rect x="253" y="400" width="82.8" height="28" fill="#EAFBF5" rx="999" ry="999" /><text x="294.4" y="420" font-family="Inter, PingFang SC, Helvetica, Arial" font-size="12" font-weight="600" fill="#1FA476" text-anchor="middle">Success</text></g><g><rect x="247" y="462" width="96" height="32" fill="#2AC28D" rx="10" ry="10" /><text x="295.0" y="483.0" font-family="Inter, PingFang SC, Helvetica, Arial" font-size="16" font-weight="600" fill="#FFFFFF" text-anchor="middle">去完成</text></g><text x="16" y="535" font-family="Inter, PingFang SC, Helvetica, Arial" font-size="16" font-weight="700" fill="#2C3640" text-anchor="start">社区动态</text><text x="359" y="536" font-family="Inter, PingFang SC, Helvetica, Arial" font-size="12" font-weight="600" fill="#3A7BD5" text-anchor="end">进入树洞</text><rect x="16" y="544" width="343" height="120" fill="#FFF6E8" rx="16" ry="16" stroke="#F2E3C4" stroke-width="1" /><text x="32" y="574" font-family="Inter, PingFang SC, Helvetica, Arial" font-size="16" font-weight="700" fill="#2C3640" text-anchor="start">有人在分享：考前焦虑自救清单</text><text x="32" y="600" font-family="Inter, PingFang SC, Helvetica, Arial" font-size="12" font-weight="500" fill="#5A6672" text-anchor="start">12 条评论 · 3 人收藏</text><g><rect x="253" y="558" width="66.0" height="28" fill="#FFF7E8" rx="999" ry="999" /><text x="286.0" y="578" font-family="Inter, PingFang SC, Helvetica, Arial" font-size="12" font-weight="600" fill="#F59E0B" text-anchor="middle">R2 关注</text></g><rect x="0" y="752" width="375" height="60" fill="#FFFFFF" /><text x="46.875" y="788" font-family="Inter, PingFang SC, Helvetica, Arial" font-size="12" font-weight="600" fill="#3A7BD5" text-anchor="middle">首页</text><rect x="30.875" y="758" width="32" height="4" fill="#3A7BD5" rx="2" ry="2" /><text x="140.625" y="788" font-family="Inter, PingFang SC, Helvetica, Arial" font-size="12" font-weight="600" fill="#5A6672" text-anchor="middle">日记</text><text x="234.375" y="788" font-family="Inter, PingFang SC, Helvetica, Arial" font-size="12" font-weight="600" fill="#5A6672" text-anchor="middle">树洞</text><text x="328.125" y="788" font-family="Inter, PingFang SC, Helvetica, Arial" font-size="12" font-weight="600" fill="#5A6672" text-anchor="middle">我的</text></svg>